<?xml version="1.0" standalone="no"?>
<!DOCTYPE svg PUBLIC "-//W3C//DTD SVG 20010904//EN"
 "http://www.w3.org/TR/2001/REC-SVG-20010904/DTD/svg10.dtd">
<svg version="1.0" xmlns="http://www.w3.org/2000/svg"
 width="1200.000000pt" height="261.000000pt" viewBox="0 0 1200.000000 261.000000"
 preserveAspectRatio="xMidYMid meet">

<g transform="translate(0.000000,261.000000) scale(0.100000,-0.100000)"
fill="#000000" stroke="none">
<path d="M3837 2383 c-4 -3 -7 -483 -7 -1065 l0 -1058 265 0 265 0 0 1065 0
1065 -258 0 c-142 0 -262 -3 -265 -7z"/>
<path d="M6327 2383 c-4 -3 -7 -84 -7 -180 l0 -173 265 0 265 0 0 180 0 180
-258 0 c-142 0 -262 -3 -265 -7z"/>
<path d="M228 2374 c-5 -4 -8 -482 -8 -1061 l0 -1055 443 5 c404 4 450 6 532
25 112 26 182 50 265 92 265 132 437 379 496 710 21 117 24 389 5 505 -68 421
-325 679 -756 761 -73 14 -172 18 -530 21 -242 3 -443 1 -447 -3z m880 -482
c180 -57 268 -204 288 -483 13 -187 -30 -401 -101 -507 -78 -115 -182 -161
-382 -169 l-133 -6 0 592 0 591 134 0 c102 0 148 -4 194 -18z"/>
<path d="M7495 2284 c-132 -23 -241 -43 -242 -43 -2 -1 -3 -91 -3 -201 l0
-200 -90 0 -90 0 0 -205 0 -205 90 0 90 0 0 -352 c0 -194 5 -387 10 -428 26
-201 110 -325 255 -379 148 -56 390 -51 573 11 l97 33 3 198 c1 108 -1 197 -5
197 -4 0 -41 -10 -82 -21 -100 -29 -216 -31 -255 -6 -53 35 -56 56 -56 417 l0
330 170 0 170 0 0 205 0 205 -170 0 -170 0 0 245 0 245 -27 -1 c-16 -1 -136
-21 -268 -45z"/>
<path d="M8737 2290 c-125 -21 -234 -41 -242 -44 -13 -4 -15 -39 -15 -206 l0
-200 -90 0 -90 0 0 -205 0 -205 89 0 89 0 5 -392 c5 -432 10 -476 67 -587 58
-117 150 -180 296 -206 150 -27 322 -13 473 38 l96 32 3 198 c1 108 0 197 -3
197 -2 0 -40 -10 -82 -22 -107 -30 -221 -31 -260 -2 -49 36 -52 62 -52 417
l-1 327 170 0 170 0 0 205 0 205 -170 0 -170 0 0 245 0 245 -27 -1 c-16 -1
-131 -18 -256 -39z"/>
<path d="M2770 1859 c-41 -5 -111 -20 -155 -33 -221 -69 -379 -243 -447 -491
-19 -69 -22 -107 -22 -285 -1 -232 11 -294 82 -440 54 -110 178 -233 292 -288
47 -23 123 -50 170 -62 218 -52 540 -31 750 49 90 35 87 18 44 205 -21 91 -40
170 -43 175 -4 5 -37 -1 -77 -15 -179 -60 -415 -71 -522 -24 -69 30 -135 102
-152 167 -7 26 -14 56 -17 66 -4 16 23 17 472 17 l477 0 -5 218 c-4 240 -13
287 -72 407 -80 164 -235 279 -433 319 -91 19 -251 26 -342 15z m198 -369 c90
-20 157 -99 169 -201 l6 -49 -228 0 -228 0 6 49 c12 105 75 178 172 202 43 10
49 10 103 -1z"/>
<path d="M5222 1860 c-189 -24 -311 -79 -428 -195 -122 -121 -180 -241 -209
-435 -74 -484 141 -873 540 -976 103 -27 341 -24 450 5 165 43 314 147 401
279 92 138 140 345 131 562 -7 154 -32 254 -93 379 -38 76 -62 110 -128 176
-68 69 -96 90 -176 128 -52 25 -126 52 -165 61 -92 20 -233 27 -323 16z m195
-411 c45 -16 91 -69 113 -125 28 -77 44 -213 37 -334 -15 -247 -80 -350 -221
-350 -68 0 -102 12 -144 53 -65 62 -99 226 -89 422 10 181 58 295 142 331 37
16 123 18 162 3z"/>
<path d="M10180 1859 c-314 -38 -519 -216 -601 -524 -27 -99 -38 -375 -20
-482 44 -259 180 -446 397 -544 128 -58 218 -73 429 -73 151 1 210 5 285 21
98 21 260 78 260 92 0 13 -77 342 -81 346 -2 2 -36 -8 -75 -21 -178 -60 -415
-71 -521 -25 -90 39 -147 114 -168 219 l-7 32 477 0 477 0 -5 218 c-5 242 -13
284 -75 412 -50 102 -149 202 -252 252 -135 67 -347 98 -520 77z m198 -370
c69 -14 125 -64 151 -135 12 -30 21 -68 21 -85 l0 -29 -227 2 -228 3 3 35 c5
45 37 118 65 148 26 28 70 52 112 63 43 10 49 10 103 -2z"/>
<path d="M6320 1050 l0 -790 265 0 265 0 0 790 0 790 -265 0 -265 0 0 -790z"/>
</g>
</svg>
